<svg width="40" height="40" viewBox="0 0 40 40" fill="none" xmlns="http://www.w3.org/2000/svg">
<g clip-path="url(#clip0_14_300)">
<path d="M-1.52588e-05 31.6667C0.00263117 33.8761 0.881455 35.9942 2.44368 37.5564C4.00591 39.1186 6.12399 39.9974 8.33332 40.0001H31.6667C33.876 39.9974 35.9941 39.1186 37.5563 37.5564C39.1185 35.9942 39.9973 33.8761 40 31.6667V16.6667H-1.52588e-05V31.6667ZM28.3333 24.1667C28.8278 24.1667 29.3111 24.3134 29.7222 24.5881C30.1334 24.8628 30.4538 25.2532 30.643 25.71C30.8322 26.1669 30.8817 26.6695 30.7853 27.1545C30.6888 27.6394 30.4507 28.0849 30.1011 28.4345C29.7515 28.7841 29.306 29.0222 28.821 29.1187C28.3361 29.2152 27.8334 29.1657 27.3766 28.9764C26.9198 28.7872 26.5293 28.4668 26.2546 28.0557C25.9799 27.6446 25.8333 27.1612 25.8333 26.6667C25.8333 26.0037 26.0967 25.3678 26.5655 24.899C27.0344 24.4301 27.6703 24.1667 28.3333 24.1667ZM20 24.1667C20.4944 24.1667 20.9778 24.3134 21.3889 24.5881C21.8 24.8628 22.1205 25.2532 22.3097 25.71C22.4989 26.1669 22.5484 26.6695 22.4519 27.1545C22.3555 27.6394 22.1174 28.0849 21.7678 28.4345C21.4181 28.7841 20.9727 29.0222 20.4877 29.1187C20.0028 29.2152 19.5001 29.1657 19.0433 28.9764C18.5865 28.7872 18.196 28.4668 17.9213 28.0557C17.6466 27.6446 17.5 27.1612 17.5 26.6667C17.5 26.0037 17.7634 25.3678 18.2322 24.899C18.7011 24.4301 19.3369 24.1667 20 24.1667ZM11.6667 24.1667C12.1611 24.1667 12.6445 24.3134 13.0556 24.5881C13.4667 24.8628 13.7871 25.2532 13.9763 25.71C14.1656 26.1669 14.2151 26.6695 14.1186 27.1545C14.0222 27.6394 13.784 28.0849 13.4344 28.4345C13.0848 28.7841 12.6393 29.0222 12.1544 29.1187C11.6694 29.2152 11.1668 29.1657 10.7099 28.9764C10.2531 28.7872 9.86268 28.4668 9.58798 28.0557C9.31327 27.6446 9.16665 27.1612 9.16665 26.6667C9.16665 26.0037 9.43004 25.3678 9.89888 24.899C10.3677 24.4301 11.0036 24.1667 11.6667 24.1667Z" fill="#F3F4F8"/>
<path d="M31.6667 3.33333H30V1.66667C30 1.22464 29.8244 0.800716 29.5118 0.488155C29.1993 0.175595 28.7754 0 28.3333 0C27.8913 0 27.4674 0.175595 27.1548 0.488155C26.8423 0.800716 26.6667 1.22464 26.6667 1.66667V3.33333H13.3333V1.66667C13.3333 1.22464 13.1577 0.800716 12.8452 0.488155C12.5326 0.175595 12.1087 0 11.6667 0C11.2246 0 10.8007 0.175595 10.4882 0.488155C10.1756 0.800716 10 1.22464 10 1.66667V3.33333H8.33333C6.12401 3.33598 4.00593 4.2148 2.4437 5.77703C0.88147 7.33926 0.00264643 9.45734 0 11.6667L0 13.3333H40V11.6667C39.9974 9.45734 39.1185 7.33926 37.5563 5.77703C35.9941 4.2148 33.876 3.33598 31.6667 3.33333Z" fill="#F3F4F8"/>
</g>
<defs>
<clipPath id="clip0_14_300">
<rect width="40" height="40" fill="white"/>
</clipPath>
</defs>
</svg>
