<svg width="40" height="40" viewBox="0 0 40 40" fill="none" xmlns="http://www.w3.org/2000/svg">
<g clip-path="url(#clip0_14_255)">
<path d="M20 24.9863C17.2386 24.9863 15 27.2249 15 29.9863V39.9863H25V29.9863C25 27.2249 22.7614 24.9863 20 24.9863Z" fill="#F3F4F8"/>
<path d="M28.3334 29.9871V39.9871H35C37.7614 39.9871 40 37.7485 40 34.9871V19.7854C40.0004 18.9196 39.6639 18.0875 39.0616 17.4654L24.8984 2.1537C22.3993 -0.550209 18.1815 -0.716225 15.4776 1.78284C15.3491 1.90159 15.2254 2.02526 15.1067 2.1537L0.96836 17.4604C0.347891 18.0851 -0.000234257 18.9299 1.18268e-07 19.8104V34.9871C1.18268e-07 37.7485 2.23859 39.9871 5 39.9871H11.6666V29.9871C11.6978 25.4424 15.3671 21.7311 19.7973 21.6242C24.3758 21.5138 28.2984 25.2882 28.3334 29.9871Z" fill="#F3F4F8"/>
<path d="M20 24.9863C17.2386 24.9863 15 27.2249 15 29.9863V39.9863H25V29.9863C25 27.2249 22.7614 24.9863 20 24.9863Z" fill="#F3F4F8"/>
</g>
<defs>
<clipPath id="clip0_14_255">
<rect width="40" height="40" fill="white"/>
</clipPath>
</defs>
</svg>
