<svg width="40" height="40" viewBox="0 0 40 40" fill="none" xmlns="http://www.w3.org/2000/svg">
<g clip-path="url(#clip0_18_44)">
<path d="M30.8333 3.33333H30V2.5C30 1.83696 29.7366 1.20107 29.2678 0.732233C28.7989 0.263392 28.163 0 27.5 0V0C26.837 0 26.2011 0.263392 25.7322 0.732233C25.2634 1.20107 25 1.83696 25 2.5V3.33333H15V2.5C15 1.83696 14.7366 1.20107 14.2678 0.732233C13.7989 0.263392 13.163 0 12.5 0V0C11.837 0 11.2011 0.263392 10.7322 0.732233C10.2634 1.20107 10 1.83696 10 2.5V3.33333H9.16667C6.73552 3.33333 4.40394 4.2991 2.68485 6.01819C0.965771 7.73727 0 10.0688 0 12.5L0 30.8333C0 33.2645 0.965771 35.5961 2.68485 37.3151C4.40394 39.0342 6.73552 40 9.16667 40H30.8333C33.2645 40 35.5961 39.0342 37.3151 37.3151C39.0342 35.5961 40 33.2645 40 30.8333V12.5C40 10.0688 39.0342 7.73727 37.3151 6.01819C35.5961 4.2991 33.2645 3.33333 30.8333 3.33333ZM30.8333 35H9.16667C8.0616 35 7.00179 34.561 6.22039 33.7796C5.43899 32.9982 5 31.9384 5 30.8333V16.6667H35V30.8333C35 31.9384 34.561 32.9982 33.7796 33.7796C32.9982 34.561 31.9384 35 30.8333 35Z" fill="#F3F4F8"/>
</g>
<defs>
<clipPath id="clip0_18_44">
<rect width="40" height="40" fill="white"/>
</clipPath>
</defs>
</svg>
