<svg width="360" height="800" viewBox="0 0 360 800" fill="none" xmlns="http://www.w3.org/2000/svg">
<g clip-path="url(#clip0_71_383)">
<rect width="360" height="800" fill="#F3F4F8"/>
<path d="M0 0H360V565.5C360 565.5 351.46 572.48 338 579C327.936 583.875 314.267 588.272 304 590.5C298.386 591.718 292.167 592.513 286.5 593.031C276.368 593.957 268 594 268 594C210.5 594 156.5 551.5 113 535.5C58.1186 515.314 0 564 0 564V0Z" fill="#9E93B4"/>
<path d="M70.6747 143.385C70.6747 144.915 70.8547 146.295 71.2147 147.525C71.6047 148.755 72.1447 149.82 72.8347 150.72C73.5547 151.59 74.4247 152.265 75.4447 152.745C76.4647 153.225 77.6347 153.465 78.9547 153.465C80.2447 153.465 81.3997 153.225 82.4197 152.745C83.4697 152.265 84.3397 151.59 85.0297 150.72C85.7497 149.82 86.2897 148.755 86.6497 147.525C87.0397 146.295 87.2347 144.915 87.2347 143.385C87.2347 141.855 87.0397 140.475 86.6497 139.245C86.2897 137.985 85.7497 136.92 85.0297 136.05C84.3397 135.15 83.4697 134.46 82.4197 133.98C81.3997 133.5 80.2447 133.26 78.9547 133.26C77.6347 133.26 76.4647 133.515 75.4447 134.025C74.4247 134.505 73.5547 135.195 72.8347 136.095C72.1447 136.965 71.6047 138.03 71.2147 139.29C70.8547 140.52 70.6747 141.885 70.6747 143.385ZM94.4797 143.385C94.4797 145.575 94.2097 147.555 93.6697 149.325C93.1297 151.065 92.3647 152.595 91.3747 153.915C90.4147 155.235 89.2597 156.33 87.9097 157.2C86.5597 158.07 85.0747 158.7 83.4547 159.09C83.6047 159.69 83.9347 160.17 84.4447 160.53C84.9547 160.92 85.5997 161.235 86.3797 161.475C87.1597 161.715 88.0597 161.895 89.0797 162.015C90.1297 162.135 91.2547 162.24 92.4547 162.33L91.0147 167.46C88.6747 167.37 86.6647 167.13 84.9847 166.74C83.3347 166.38 81.9247 165.87 80.7547 165.21C79.6147 164.55 78.6997 163.74 78.0097 162.78C77.3497 161.82 76.8397 160.71 76.4797 159.45C74.6197 159.21 72.8947 158.7 71.3047 157.92C69.7147 157.11 68.3347 156.03 67.1647 154.68C65.9947 153.33 65.0797 151.71 64.4197 149.82C63.7597 147.93 63.4297 145.785 63.4297 143.385C63.4297 140.715 63.8497 138.375 64.6897 136.365C65.5297 134.325 66.6547 132.615 68.0647 131.235C69.5047 129.855 71.1547 128.82 73.0147 128.13C74.9047 127.44 76.8847 127.095 78.9547 127.095C81.0847 127.095 83.0947 127.44 84.9847 128.13C86.8747 128.82 88.5247 129.855 89.9347 131.235C91.3447 132.615 92.4547 134.325 93.2647 136.365C94.0747 138.375 94.4797 140.715 94.4797 143.385ZM120.086 158.19C118.946 158.52 117.476 158.82 115.676 159.09C113.876 159.39 111.986 159.54 110.006 159.54C107.996 159.54 106.316 159.27 104.966 158.73C103.646 158.19 102.596 157.44 101.816 156.48C101.036 155.49 100.481 154.32 100.151 152.97C99.8214 151.62 99.6564 150.135 99.6564 148.515V135.33H106.361V147.705C106.361 149.865 106.646 151.425 107.216 152.385C107.786 153.345 108.851 153.825 110.411 153.825C110.891 153.825 111.401 153.81 111.941 153.78C112.481 153.72 112.961 153.66 113.381 153.6V135.33H120.086V158.19ZM125.255 147.345C125.255 145.245 125.57 143.415 126.2 141.855C126.86 140.265 127.715 138.945 128.765 137.895C129.815 136.845 131.015 136.05 132.365 135.51C133.745 134.97 135.155 134.7 136.595 134.7C139.955 134.7 142.61 135.735 144.56 137.805C146.51 139.845 147.485 142.86 147.485 146.85C147.485 147.24 147.47 147.675 147.44 148.155C147.41 148.605 147.38 149.01 147.35 149.37H132.14C132.29 150.75 132.935 151.845 134.075 152.655C135.215 153.465 136.745 153.87 138.665 153.87C139.895 153.87 141.095 153.765 142.265 153.555C143.465 153.315 144.44 153.03 145.19 152.7L146.09 158.145C145.73 158.325 145.25 158.505 144.65 158.685C144.05 158.865 143.375 159.015 142.625 159.135C141.905 159.285 141.125 159.405 140.285 159.495C139.445 159.585 138.605 159.63 137.765 159.63C135.635 159.63 133.775 159.315 132.185 158.685C130.625 158.055 129.32 157.2 128.27 156.12C127.25 155.01 126.485 153.705 125.975 152.205C125.495 150.705 125.255 149.085 125.255 147.345ZM141.005 144.78C140.975 144.21 140.87 143.655 140.69 143.115C140.54 142.575 140.285 142.095 139.925 141.675C139.595 141.255 139.16 140.91 138.62 140.64C138.11 140.37 137.465 140.235 136.685 140.235C135.935 140.235 135.29 140.37 134.75 140.64C134.21 140.88 133.76 141.21 133.4 141.63C133.04 142.05 132.755 142.545 132.545 143.115C132.365 143.655 132.23 144.21 132.14 144.78H141.005ZM166.925 141.27C166.325 141.12 165.62 140.97 164.81 140.82C164 140.64 163.13 140.55 162.2 140.55C161.78 140.55 161.27 140.595 160.67 140.685C160.1 140.745 159.665 140.82 159.365 140.91V159H152.66V136.59C153.86 136.17 155.27 135.78 156.89 135.42C158.54 135.03 160.37 134.835 162.38 134.835C162.74 134.835 163.175 134.865 163.685 134.925C164.195 134.955 164.705 135.015 165.215 135.105C165.725 135.165 166.235 135.255 166.745 135.375C167.255 135.465 167.69 135.585 168.05 135.735L166.925 141.27ZM178.349 159H171.644V135.33H178.349V159ZM178.979 128.49C178.979 129.72 178.574 130.695 177.764 131.415C176.984 132.105 176.054 132.45 174.974 132.45C173.894 132.45 172.949 132.105 172.139 131.415C171.359 130.695 170.969 129.72 170.969 128.49C170.969 127.26 171.359 126.3 172.139 125.61C172.949 124.89 173.894 124.53 174.974 124.53C176.054 124.53 176.984 124.89 177.764 125.61C178.574 126.3 178.979 127.26 178.979 128.49ZM190.367 146.985C190.367 149.055 190.832 150.72 191.762 151.98C192.692 153.24 194.072 153.87 195.902 153.87C196.502 153.87 197.057 153.855 197.567 153.825C198.077 153.765 198.497 153.705 198.827 153.645V141.45C198.407 141.18 197.852 140.955 197.162 140.775C196.502 140.595 195.827 140.505 195.137 140.505C191.957 140.505 190.367 142.665 190.367 146.985ZM205.532 158.235C204.932 158.415 204.242 158.595 203.462 158.775C202.682 158.925 201.857 159.06 200.987 159.18C200.147 159.3 199.277 159.39 198.377 159.45C197.507 159.54 196.667 159.585 195.857 159.585C193.907 159.585 192.167 159.3 190.637 158.73C189.107 158.16 187.817 157.35 186.767 156.3C185.717 155.22 184.907 153.93 184.337 152.43C183.797 150.9 183.527 149.19 183.527 147.3C183.527 145.38 183.767 143.655 184.247 142.125C184.727 140.565 185.417 139.245 186.317 138.165C187.217 137.085 188.312 136.26 189.602 135.69C190.922 135.12 192.422 134.835 194.102 134.835C195.032 134.835 195.857 134.925 196.577 135.105C197.327 135.285 198.077 135.54 198.827 135.87V125.16L205.532 124.08V158.235ZM218.515 159H211.81V135.33H218.515V159ZM219.145 128.49C219.145 129.72 218.74 130.695 217.93 131.415C217.15 132.105 216.22 132.45 215.14 132.45C214.06 132.45 213.115 132.105 212.305 131.415C211.525 130.695 211.135 129.72 211.135 128.49C211.135 127.26 211.525 126.3 212.305 125.61C213.115 124.89 214.06 124.53 215.14 124.53C216.22 124.53 217.15 124.89 217.93 125.61C218.74 126.3 219.145 127.26 219.145 128.49ZM224.818 136.14C225.958 135.81 227.428 135.51 229.228 135.24C231.028 134.94 232.918 134.79 234.898 134.79C236.908 134.79 238.573 135.06 239.893 135.6C241.243 136.11 242.308 136.845 243.088 137.805C243.868 138.765 244.423 139.905 244.753 141.225C245.083 142.545 245.248 144.015 245.248 145.635V159H238.543V146.445C238.543 144.285 238.258 142.755 237.688 141.855C237.118 140.955 236.053 140.505 234.493 140.505C234.013 140.505 233.503 140.535 232.963 140.595C232.423 140.625 231.943 140.67 231.523 140.73V159H224.818V136.14ZM251.317 159V125.16L258.022 124.08V135.42C258.472 135.27 259.042 135.135 259.732 135.015C260.452 134.865 261.142 134.79 261.802 134.79C263.722 134.79 265.312 135.06 266.572 135.6C267.862 136.11 268.882 136.845 269.632 137.805C270.412 138.765 270.952 139.905 271.252 141.225C271.582 142.545 271.747 144.015 271.747 145.635V159H265.042V146.445C265.042 144.285 264.757 142.755 264.187 141.855C263.647 140.955 262.627 140.505 261.127 140.505C260.527 140.505 259.957 140.565 259.417 140.685C258.907 140.775 258.442 140.88 258.022 141V159H251.317ZM299.956 147.12C299.956 148.98 299.686 150.69 299.146 152.25C298.606 153.78 297.826 155.1 296.806 156.21C295.786 157.29 294.556 158.13 293.116 158.73C291.706 159.33 290.116 159.63 288.346 159.63C286.606 159.63 285.016 159.33 283.576 158.73C282.166 158.13 280.951 157.29 279.931 156.21C278.911 155.1 278.116 153.78 277.546 152.25C276.976 150.69 276.691 148.98 276.691 147.12C276.691 145.26 276.976 143.565 277.546 142.035C278.146 140.505 278.956 139.2 279.976 138.12C281.026 137.04 282.256 136.2 283.666 135.6C285.106 135 286.666 134.7 288.346 134.7C290.056 134.7 291.616 135 293.026 135.6C294.466 136.2 295.696 137.04 296.716 138.12C297.736 139.2 298.531 140.505 299.101 142.035C299.671 143.565 299.956 145.26 299.956 147.12ZM293.116 147.12C293.116 145.05 292.696 143.43 291.856 142.26C291.046 141.06 289.876 140.46 288.346 140.46C286.816 140.46 285.631 141.06 284.791 142.26C283.951 143.43 283.531 145.05 283.531 147.12C283.531 149.19 283.951 150.84 284.791 152.07C285.631 153.27 286.816 153.87 288.346 153.87C289.876 153.87 291.046 153.27 291.856 152.07C292.696 150.84 293.116 149.19 293.116 147.12ZM181.473 179.815C182.013 180.805 182.628 182.035 183.318 183.505C184.038 184.945 184.773 186.52 185.523 188.23C186.303 189.91 187.068 191.635 187.818 193.405C188.568 195.175 189.273 196.84 189.933 198.4C190.593 196.84 191.298 195.175 192.048 193.405C192.798 191.635 193.548 189.91 194.298 188.23C195.078 186.52 195.813 184.945 196.503 183.505C197.223 182.035 197.853 180.805 198.393 179.815H204.783C205.083 181.885 205.353 184.21 205.593 186.79C205.863 189.34 206.088 192.01 206.268 194.8C206.478 197.56 206.658 200.335 206.808 203.125C206.988 205.915 207.138 208.54 207.258 211H200.418C200.328 207.97 200.208 204.67 200.058 201.1C199.908 197.53 199.683 193.93 199.383 190.3C198.843 191.56 198.243 192.955 197.583 194.485C196.923 196.015 196.263 197.545 195.603 199.075C194.973 200.605 194.358 202.075 193.758 203.485C193.158 204.865 192.648 206.05 192.228 207.04H187.323C186.903 206.05 186.393 204.865 185.793 203.485C185.193 202.075 184.563 200.605 183.903 199.075C183.273 197.545 182.628 196.015 181.968 194.485C181.308 192.955 180.708 191.56 180.168 190.3C179.868 193.93 179.643 197.53 179.493 201.1C179.343 204.67 179.223 207.97 179.133 211H172.293C172.413 208.54 172.548 205.915 172.698 203.125C172.878 200.335 173.058 197.56 173.238 194.8C173.448 192.01 173.673 189.34 173.913 186.79C174.183 184.21 174.468 181.885 174.768 179.815H181.473ZM283.707 198.985C283.707 201.055 284.172 202.72 285.102 203.98C286.032 205.24 287.412 205.87 289.242 205.87C289.842 205.87 290.397 205.855 290.907 205.825C291.417 205.765 291.837 205.705 292.167 205.645V193.45C291.747 193.18 291.192 192.955 290.502 192.775C289.842 192.595 289.167 192.505 288.477 192.505C285.297 192.505 283.707 194.665 283.707 198.985ZM298.872 210.235C298.272 210.415 297.582 210.595 296.802 210.775C296.022 210.925 295.197 211.06 294.327 211.18C293.487 211.3 292.617 211.39 291.717 211.45C290.847 211.54 290.007 211.585 289.197 211.585C287.247 211.585 285.507 211.3 283.977 210.73C282.447 210.16 281.157 209.35 280.107 208.3C279.057 207.22 278.247 205.93 277.677 204.43C277.137 202.9 276.867 201.19 276.867 199.3C276.867 197.38 277.107 195.655 277.587 194.125C278.067 192.565 278.757 191.245 279.657 190.165C280.557 189.085 281.652 188.26 282.942 187.69C284.262 187.12 285.762 186.835 287.442 186.835C288.372 186.835 289.197 186.925 289.917 187.105C290.667 187.285 291.417 187.54 292.167 187.87V177.16L298.872 176.08V210.235Z" fill="#F3F4F8"/>
<circle cx="226" cy="196" r="15" fill="#A6C9C1"/>
<rect x="219.4" y="190" width="4.2" height="6.6" rx="2.1" fill="#282A3A"/>
<rect x="220" y="191.2" width="1.2" height="1.8" rx="0.6" fill="#F3F4F8"/>
<rect x="228.4" y="190" width="4.2" height="6.6" rx="2.1" fill="#282A3A"/>
<rect x="229" y="191.2" width="1.2" height="1.8" rx="0.6" fill="#F3F4F8"/>
<path d="M220 199.9C220 199.9 223 201.7 226 201.7C229 201.7 232 199.9 232 199.9" stroke="#282A3A" stroke-width="2" stroke-linecap="round"/>
<circle cx="259" cy="196" r="15" fill="#736490"/>
<path d="M253 201.848C253 200.688 255.355 197.8 259 197.8C262.645 197.8 265 200.688 265 201.848C265 203.008 262.645 202.448 259 202.448C255.355 202.448 253 203.008 253 201.848Z" fill="#282A3A"/>
<rect x="252.4" y="190" width="4.2" height="6.6" rx="2.1" fill="#282A3A"/>
<rect x="253" y="191.2" width="1.2" height="1.8" rx="0.6" fill="#F3F4F8"/>
<rect x="261.4" y="190" width="4.2" height="6.6" rx="2.1" fill="#282A3A"/>
<rect x="262" y="191.2" width="1.2" height="1.8" rx="0.599999" fill="#F3F4F8"/>
<path d="M261.401 190C261.401 190 262.604 190.473 263.416 190.594C264.26 190.719 265.601 190.6 265.601 190.6" stroke="#282A3A" stroke-width="2" stroke-linecap="round"/>
<path d="M256.6 190.006C256.6 190.006 255.396 190.479 254.585 190.6C253.741 190.725 252.4 190.606 252.4 190.606" stroke="#282A3A" stroke-width="2" stroke-linecap="round"/>
<path d="M247.6 191.587C246.646 191.586 245.73 191.206 245.055 190.532C244.381 189.857 244.001 188.942 244 187.987C244 187.051 244.72 185.56 246.131 183.554C246.299 183.321 246.519 183.131 246.775 183C247.031 182.868 247.314 182.8 247.601 182.8C247.889 182.8 248.172 182.868 248.427 183C248.683 183.131 248.904 183.321 249.071 183.554C250.483 185.56 251.2 187.051 251.2 187.987C251.199 188.942 250.819 189.857 250.145 190.532C249.47 191.206 248.554 191.586 247.6 191.587Z" fill="#BFD7EA"/>
<path d="M78.5 530C43.5781 530 -0.5 559.5 -0.5 559.5V602.5C-0.5 602.5 36.3437 567.798 69 555C83.0045 549.512 98.6412 542.879 124.5 550.5C158.94 560.65 218 584 218 584C218 584 170.945 557.825 136.5 542.5C116 533.379 91.1361 530 78.5 530Z" fill="url(#paint0_linear_71_383)"/>
</g>
<defs>
<linearGradient id="paint0_linear_71_383" x1="167.5" y1="559" x2="4.99998" y2="569" gradientUnits="userSpaceOnUse">
<stop stop-color="#736490"/>
<stop offset="1" stop-color="#A6C9C1"/>
</linearGradient>
<clipPath id="clip0_71_383">
<rect width="360" height="800" fill="white"/>
</clipPath>
</defs>
</svg>
