<svg width="290" height="114" viewBox="0 0 290 114" fill="none" xmlns="http://www.w3.org/2000/svg">
<g filter="url(#filter0_d_24_199)">
<circle cx="27" cy="27" r="22.5" fill="#4D8074" stroke="#F3F4F8" stroke-width="5"/>
<path d="M35.8 31.0001C35.8 32.5465 31.8601 37.0001 27 37.0001C22.1399 37.0001 18.2 32.5465 18.2 31.0001C18.2 29.4537 22.1399 31.4001 27 31.4001C31.8601 31.4001 35.8 29.4537 35.8 31.0001Z" fill="#F3F4F8"/>
<rect x="18.2" y="17.4" width="5.6" height="8.8" rx="2.8" fill="#282A3A"/>
<rect x="19" y="19" width="1.6" height="2.4" rx="0.8" fill="#F3F4F8"/>
<rect x="30.2" y="17.4" width="5.6" height="8.8" rx="2.8" fill="#282A3A"/>
<rect x="31" y="19" width="1.6" height="2.4" rx="0.8" fill="#F3F4F8"/>
<circle cx="27" cy="83" r="22.5" fill="#736490" stroke="#F3F4F8" stroke-width="5"/>
<path d="M19 90.797C19 89.2506 22.1399 85.4 27 85.4C31.8601 85.4 35 89.2506 35 90.797C35 92.3434 31.8601 91.597 27 91.597C22.1399 91.597 19 92.3434 19 90.797Z" fill="#282A3A"/>
<rect x="18.2" y="75" width="5.6" height="8.8" rx="2.8" fill="#282A3A"/>
<rect x="19" y="76.6" width="1.6" height="2.4" rx="0.8" fill="#F3F4F8"/>
<rect x="30.2" y="75" width="5.6" height="8.8" rx="2.8" fill="#282A3A"/>
<rect x="31" y="76.6" width="1.6" height="2.4" rx="0.8" fill="#F3F4F8"/>
<path d="M30.2011 75C30.2011 75 31.806 75.6312 32.888 75.792C34.0133 75.9592 35.8011 75.8 35.8011 75.8" stroke="#282A3A" stroke-width="2" stroke-linecap="round"/>
<path d="M23.8 75.0081C23.8 75.0081 22.1952 75.6393 21.1131 75.8C19.9878 75.9672 18.2 75.8081 18.2 75.8081" stroke="#282A3A" stroke-width="2" stroke-linecap="round"/>
<path d="M11.8 77.1161C10.5274 77.1148 9.30719 76.6087 8.40729 75.7088C7.50739 74.8089 7.00127 73.5887 7 72.3161C7 71.0681 7.96 69.0801 9.8416 66.4057C10.065 66.0945 10.3593 65.841 10.7001 65.6661C11.041 65.4912 11.4185 65.4 11.8016 65.4C12.1847 65.4 12.5622 65.4912 12.9031 65.6661C13.2439 65.841 13.5382 66.0945 13.7616 66.4057C15.644 69.0801 16.6 71.0681 16.6 72.3161C16.5987 73.5887 16.0926 74.8089 15.1927 75.7088C14.2928 76.6087 13.0726 77.1148 11.8 77.1161Z" fill="#BFD7EA"/>
<circle cx="201" cy="83" r="22.5" fill="#D62828" stroke="#F3F4F8" stroke-width="5"/>
<path d="M192.2 92.403C192.2 90.8566 196.14 86.403 201 86.403C205.86 86.403 209.8 90.8566 209.8 92.403C209.8 93.9494 205.86 92.003 201 92.003C196.14 92.003 192.2 93.9494 192.2 92.403Z" fill="#282A3A"/>
<rect x="192.2" y="73.4" width="5.6" height="8.8" rx="2.8" fill="#282A3A"/>
<rect x="193" y="75" width="1.6" height="2.4" rx="0.8" fill="#F3F4F8"/>
<rect x="204.2" y="73.4" width="5.6" height="8.8" rx="2.8" fill="#282A3A"/>
<rect x="205" y="75" width="1.6" height="2.4" rx="0.8" fill="#F3F4F8"/>
<path d="M209.744 73.4C209.744 73.4 208.139 74.0312 207.057 74.192C205.932 74.3592 204.144 74.2 204.144 74.2" stroke="#282A3A" stroke-width="2" stroke-linecap="round"/>
<path d="M192.257 73.4081C192.257 73.4081 193.862 74.0393 194.944 74.2C196.069 74.3672 197.857 74.2081 197.857 74.2081" stroke="#282A3A" stroke-width="2" stroke-linecap="round"/>
<circle cx="143" cy="83" r="22.5" fill="#DF5353" stroke="#F3F4F8" stroke-width="5"/>
<rect x="134.2" y="75" width="5.6" height="8.8" rx="2.8" fill="#282A3A"/>
<rect x="135" y="76.6" width="1.6" height="2.4" rx="0.8" fill="#F3F4F8"/>
<rect x="146.2" y="75" width="5.6" height="8.8" rx="2.8" fill="#282A3A"/>
<rect x="147" y="76.6" width="1.6" height="2.4" rx="0.8" fill="#F3F4F8"/>
<path d="M135 90.6C135 90.6 139 88.2 143 88.2C147 88.2 151 90.6 151 90.6" stroke="#282A3A" stroke-width="2" stroke-linecap="round"/>
<path d="M151.8 74.2C151.8 74.2 150.195 74.8312 149.113 74.992C147.988 75.1592 146.2 75 146.2 75" stroke="#282A3A" stroke-width="2" stroke-linecap="round"/>
<path d="M134.313 74.2081C134.313 74.2081 135.918 74.8393 137 75C138.125 75.1672 139.913 75.0081 139.913 75.0081" stroke="#282A3A" stroke-width="2" stroke-linecap="round"/>
<circle cx="85" cy="83" r="22.5" fill="#9E93B4" stroke="#F3F4F8" stroke-width="5"/>
<path d="M88.2 79.8C88.2 79.8 89.6 80.2 91 80.2C92.4 80.2 93.8 79.8 93.8 79.8" stroke="#282A3A" stroke-width="2" stroke-linecap="round"/>
<path d="M76.2 79.8C76.2 79.8 77.6 80.2 79 80.2C80.4 80.2 81.8 79.8 81.8 79.8" stroke="#282A3A" stroke-width="2" stroke-linecap="round"/>
<path d="M78.6 89.2164C78.6 87.6644 81.1119 83.8 85 83.8C88.8881 83.8 91.4 87.6644 91.4 89.2164C91.4 90.7684 88.8881 90.0193 85 90.0193C81.1119 90.0193 78.6 90.7684 78.6 89.2164Z" fill="#282A3A"/>
<path d="M95.4 66.8546L96.6277 66.2805C96.7007 66.2464 96.782 66.3081 96.7687 66.3876L96.4364 68.3815C96.4223 68.4665 96.5149 68.5284 96.588 68.4828L97.8 67.7273" stroke="#282A3A" stroke-width="0.6" stroke-linecap="round"/>
<path d="M93.8 71.2909L95.9611 70.2805C96.034 70.2464 96.1153 70.3081 96.1021 70.3876L95.5031 73.9815C95.4889 74.0665 95.5816 74.1284 95.6546 74.0828L97.8 72.7455" stroke="#282A3A" stroke-linecap="round"/>
<circle cx="85" cy="27" r="22.5" fill="#A6C9C1" stroke="#F3F4F8" stroke-width="5"/>
<rect x="76.2" y="19" width="5.6" height="8.8" rx="2.8" fill="#282A3A"/>
<rect x="77" y="20.6" width="1.6" height="2.4" rx="0.8" fill="#F3F4F8"/>
<rect x="88.2" y="19" width="5.6" height="8.8" rx="2.8" fill="#282A3A"/>
<rect x="89" y="20.6" width="1.6" height="2.4" rx="0.8" fill="#F3F4F8"/>
<path d="M77 32.2C77 32.2 81 34.6 85 34.6C89 34.6 93 32.2 93 32.2" stroke="#282A3A" stroke-width="2" stroke-linecap="round"/>
<circle cx="143" cy="27" r="22.5" fill="#F3D791" stroke="#F3F4F8" stroke-width="5"/>
<rect x="134.2" y="20.6" width="5.6" height="8.8" rx="2.8" fill="#282A3A"/>
<rect x="135" y="22.2" width="1.6" height="2.4" rx="0.8" fill="#F3F4F8"/>
<rect x="146.2" y="20.6" width="5.6" height="8.8" rx="2.8" fill="#282A3A"/>
<rect x="147" y="22.2" width="1.6" height="2.4" rx="0.8" fill="#F3F4F8"/>
<path d="M135 33.8C135 33.8 139 33.8 143 33.8C147 33.8 151 33.8 151 33.8" stroke="#282A3A" stroke-width="2" stroke-linecap="round"/>
<circle cx="259" cy="27" r="22.5" fill="#468BC3" stroke="#F3F4F8" stroke-width="5"/>
<path d="M250.2 36.403C250.2 34.8566 254.14 30.403 259 30.403C263.86 30.403 267.8 34.8566 267.8 36.403C267.8 37.9494 263.86 36.003 259 36.003C254.14 36.003 250.2 37.9494 250.2 36.403Z" fill="#282A3A"/>
<rect x="250.2" y="17.4" width="5.6" height="8.8" rx="2.8" fill="#282A3A"/>
<rect x="251" y="19" width="1.6" height="2.4" rx="0.8" fill="#F3F4F8"/>
<rect x="262.2" y="17.4" width="5.6" height="8.8" rx="2.8" fill="#282A3A"/>
<rect x="263" y="19" width="1.6" height="2.4" rx="0.8" fill="#F3F4F8"/>
<circle cx="201" cy="27" r="22.5" fill="#A3C5E1" stroke="#F3F4F8" stroke-width="5"/>
<rect x="192.2" y="19" width="5.6" height="8.8" rx="2.8" fill="#282A3A"/>
<rect x="193" y="20.6" width="1.6" height="2.4" rx="0.8" fill="#F3F4F8"/>
<rect x="204.2" y="19" width="5.6" height="8.8" rx="2.8" fill="#282A3A"/>
<rect x="205" y="20.6" width="1.6" height="2.4" rx="0.8" fill="#F3F4F8"/>
<path d="M193 34.6C193 34.6 197 32.2 201 32.2C205 32.2 209 34.6 209 34.6" stroke="#282A3A" stroke-width="2" stroke-linecap="round"/>
<circle cx="259" cy="83" r="22.5" fill="#EC9898" stroke="#F3F4F8" stroke-width="5"/>
<path d="M251 89.4C251 89.4 255 91.4 259 91.4C263 91.4 267 89.4 267 89.4" stroke="#282A3A" stroke-width="2" stroke-linecap="round"/>
<path d="M255.382 75.8C254.895 75.8073 254.417 75.9384 253.999 76.1801C253.581 76.4218 253.236 76.7655 253 77.1766C252.764 76.7655 252.419 76.4218 252.001 76.1801C251.583 75.9384 251.105 75.8073 250.618 75.8C249.84 75.8325 249.108 76.1601 248.58 76.7111C248.052 77.2622 247.773 77.9919 247.802 78.7408C247.802 80.6376 249.875 82.7091 251.614 84.1136C252.002 84.4278 252.493 84.6 253 84.6C253.507 84.6 253.998 84.4278 254.386 84.1136C256.125 82.7091 258.198 80.6376 258.198 78.7408C258.227 77.9919 257.948 77.2622 257.42 76.7111C256.892 76.1601 256.16 75.8325 255.382 75.8Z" fill="#282A3A"/>
<path d="M268.182 75.8C267.695 75.8073 267.217 75.9384 266.799 76.1801C266.381 76.4218 266.036 76.7655 265.8 77.1766C265.564 76.7655 265.219 76.4218 264.801 76.1801C264.383 75.9384 263.905 75.8073 263.418 75.8C262.64 75.8325 261.908 76.1601 261.38 76.7111C260.852 77.2622 260.573 77.9919 260.602 78.7408C260.602 80.6376 262.675 82.7091 264.414 84.1136C264.802 84.4278 265.293 84.6 265.8 84.6C266.307 84.6 266.798 84.4278 267.186 84.1136C268.925 82.7091 270.998 80.6376 270.998 78.7408C271.027 77.9919 270.748 77.2622 270.22 76.7111C269.692 76.1601 268.96 75.8325 268.182 75.8Z" fill="#282A3A"/>
</g>
<defs>
<filter id="filter0_d_24_199" x="0" y="0" width="290" height="114" filterUnits="userSpaceOnUse" color-interpolation-filters="sRGB">
<feFlood flood-opacity="0" result="BackgroundImageFix"/>
<feColorMatrix in="SourceAlpha" type="matrix" values="0 0 0 0 0 0 0 0 0 0 0 0 0 0 0 0 0 0 127 0" result="hardAlpha"/>
<feOffset dx="2" dy="2"/>
<feGaussianBlur stdDeviation="2"/>
<feComposite in2="hardAlpha" operator="out"/>
<feColorMatrix type="matrix" values="0 0 0 0 0 0 0 0 0 0 0 0 0 0 0 0 0 0 0.25 0"/>
<feBlend mode="normal" in2="BackgroundImageFix" result="effect1_dropShadow_24_199"/>
<feBlend mode="normal" in="SourceGraphic" in2="effect1_dropShadow_24_199" result="shape"/>
</filter>
</defs>
</svg>
