<svg width="300" height="208" viewBox="0 0 300 208" fill="none" xmlns="http://www.w3.org/2000/svg">
<rect width="300" height="208" rx="10" fill="#9E93B4"/>
<path d="M38.6747 79.385C38.6747 80.915 38.8547 82.295 39.2147 83.525C39.6047 84.755 40.1447 85.82 40.8347 86.72C41.5547 87.59 42.4247 88.265 43.4447 88.745C44.4647 89.225 45.6347 89.465 46.9547 89.465C48.2447 89.465 49.3997 89.225 50.4197 88.745C51.4697 88.265 52.3397 87.59 53.0297 86.72C53.7497 85.82 54.2897 84.755 54.6497 83.525C55.0397 82.295 55.2347 80.915 55.2347 79.385C55.2347 77.855 55.0397 76.475 54.6497 75.245C54.2897 73.985 53.7497 72.92 53.0297 72.05C52.3397 71.15 51.4697 70.46 50.4197 69.98C49.3997 69.5 48.2447 69.26 46.9547 69.26C45.6347 69.26 44.4647 69.515 43.4447 70.025C42.4247 70.505 41.5547 71.195 40.8347 72.095C40.1447 72.965 39.6047 74.03 39.2147 75.29C38.8547 76.52 38.6747 77.885 38.6747 79.385ZM62.4797 79.385C62.4797 81.575 62.2097 83.555 61.6697 85.325C61.1297 87.065 60.3647 88.595 59.3747 89.915C58.4147 91.235 57.2597 92.33 55.9097 93.2C54.5597 94.07 53.0747 94.7 51.4547 95.09C51.6047 95.69 51.9347 96.17 52.4447 96.53C52.9547 96.92 53.5997 97.235 54.3797 97.475C55.1597 97.715 56.0597 97.895 57.0797 98.015C58.1297 98.135 59.2547 98.24 60.4547 98.33L59.0147 103.46C56.6747 103.37 54.6647 103.13 52.9847 102.74C51.3347 102.38 49.9247 101.87 48.7547 101.21C47.6147 100.55 46.6997 99.74 46.0097 98.78C45.3497 97.82 44.8397 96.71 44.4797 95.45C42.6197 95.21 40.8947 94.7 39.3047 93.92C37.7147 93.11 36.3347 92.03 35.1647 90.68C33.9947 89.33 33.0797 87.71 32.4197 85.82C31.7597 83.93 31.4297 81.785 31.4297 79.385C31.4297 76.715 31.8497 74.375 32.6897 72.365C33.5297 70.325 34.6547 68.615 36.0647 67.235C37.5047 65.855 39.1547 64.82 41.0147 64.13C42.9047 63.44 44.8847 63.095 46.9547 63.095C49.0847 63.095 51.0947 63.44 52.9847 64.13C54.8747 64.82 56.5247 65.855 57.9347 67.235C59.3447 68.615 60.4547 70.325 61.2647 72.365C62.0747 74.375 62.4797 76.715 62.4797 79.385ZM88.0864 94.19C86.9464 94.52 85.4764 94.82 83.6764 95.09C81.8764 95.39 79.9864 95.54 78.0064 95.54C75.9964 95.54 74.3164 95.27 72.9664 94.73C71.6464 94.19 70.5964 93.44 69.8164 92.48C69.0364 91.49 68.4814 90.32 68.1514 88.97C67.8214 87.62 67.6564 86.135 67.6564 84.515V71.33H74.3614V83.705C74.3614 85.865 74.6464 87.425 75.2164 88.385C75.7864 89.345 76.8514 89.825 78.4114 89.825C78.8914 89.825 79.4014 89.81 79.9414 89.78C80.4814 89.72 80.9614 89.66 81.3814 89.6V71.33H88.0864V94.19ZM93.2555 83.345C93.2555 81.245 93.5705 79.415 94.2005 77.855C94.8605 76.265 95.7155 74.945 96.7655 73.895C97.8155 72.845 99.0155 72.05 100.365 71.51C101.745 70.97 103.155 70.7 104.595 70.7C107.955 70.7 110.61 71.735 112.56 73.805C114.51 75.845 115.485 78.86 115.485 82.85C115.485 83.24 115.47 83.675 115.44 84.155C115.41 84.605 115.38 85.01 115.35 85.37H100.14C100.29 86.75 100.935 87.845 102.075 88.655C103.215 89.465 104.745 89.87 106.665 89.87C107.895 89.87 109.095 89.765 110.265 89.555C111.465 89.315 112.44 89.03 113.19 88.7L114.09 94.145C113.73 94.325 113.25 94.505 112.65 94.685C112.05 94.865 111.375 95.015 110.625 95.135C109.905 95.285 109.125 95.405 108.285 95.495C107.445 95.585 106.605 95.63 105.765 95.63C103.635 95.63 101.775 95.315 100.185 94.685C98.6255 94.055 97.3205 93.2 96.2705 92.12C95.2505 91.01 94.4855 89.705 93.9755 88.205C93.4955 86.705 93.2555 85.085 93.2555 83.345ZM109.005 80.78C108.975 80.21 108.87 79.655 108.69 79.115C108.54 78.575 108.285 78.095 107.925 77.675C107.595 77.255 107.16 76.91 106.62 76.64C106.11 76.37 105.465 76.235 104.685 76.235C103.935 76.235 103.29 76.37 102.75 76.64C102.21 76.88 101.76 77.21 101.4 77.63C101.04 78.05 100.755 78.545 100.545 79.115C100.365 79.655 100.23 80.21 100.14 80.78H109.005ZM134.925 77.27C134.325 77.12 133.62 76.97 132.81 76.82C132 76.64 131.13 76.55 130.2 76.55C129.78 76.55 129.27 76.595 128.67 76.685C128.1 76.745 127.665 76.82 127.365 76.91V95H120.66V72.59C121.86 72.17 123.27 71.78 124.89 71.42C126.54 71.03 128.37 70.835 130.38 70.835C130.74 70.835 131.175 70.865 131.685 70.925C132.195 70.955 132.705 71.015 133.215 71.105C133.725 71.165 134.235 71.255 134.745 71.375C135.255 71.465 135.69 71.585 136.05 71.735L134.925 77.27ZM146.349 95H139.644V71.33H146.349V95ZM146.979 64.49C146.979 65.72 146.574 66.695 145.764 67.415C144.984 68.105 144.054 68.45 142.974 68.45C141.894 68.45 140.949 68.105 140.139 67.415C139.359 66.695 138.969 65.72 138.969 64.49C138.969 63.26 139.359 62.3 140.139 61.61C140.949 60.89 141.894 60.53 142.974 60.53C144.054 60.53 144.984 60.89 145.764 61.61C146.574 62.3 146.979 63.26 146.979 64.49ZM158.367 82.985C158.367 85.055 158.832 86.72 159.762 87.98C160.692 89.24 162.072 89.87 163.902 89.87C164.502 89.87 165.057 89.855 165.567 89.825C166.077 89.765 166.497 89.705 166.827 89.645V77.45C166.407 77.18 165.852 76.955 165.162 76.775C164.502 76.595 163.827 76.505 163.137 76.505C159.957 76.505 158.367 78.665 158.367 82.985ZM173.532 94.235C172.932 94.415 172.242 94.595 171.462 94.775C170.682 94.925 169.857 95.06 168.987 95.18C168.147 95.3 167.277 95.39 166.377 95.45C165.507 95.54 164.667 95.585 163.857 95.585C161.907 95.585 160.167 95.3 158.637 94.73C157.107 94.16 155.817 93.35 154.767 92.3C153.717 91.22 152.907 89.93 152.337 88.43C151.797 86.9 151.527 85.19 151.527 83.3C151.527 81.38 151.767 79.655 152.247 78.125C152.727 76.565 153.417 75.245 154.317 74.165C155.217 73.085 156.312 72.26 157.602 71.69C158.922 71.12 160.422 70.835 162.102 70.835C163.032 70.835 163.857 70.925 164.577 71.105C165.327 71.285 166.077 71.54 166.827 71.87V61.16L173.532 60.08V94.235ZM186.515 95H179.81V71.33H186.515V95ZM187.145 64.49C187.145 65.72 186.74 66.695 185.93 67.415C185.15 68.105 184.22 68.45 183.14 68.45C182.06 68.45 181.115 68.105 180.305 67.415C179.525 66.695 179.135 65.72 179.135 64.49C179.135 63.26 179.525 62.3 180.305 61.61C181.115 60.89 182.06 60.53 183.14 60.53C184.22 60.53 185.15 60.89 185.93 61.61C186.74 62.3 187.145 63.26 187.145 64.49ZM192.818 72.14C193.958 71.81 195.428 71.51 197.228 71.24C199.028 70.94 200.918 70.79 202.898 70.79C204.908 70.79 206.573 71.06 207.893 71.6C209.243 72.11 210.308 72.845 211.088 73.805C211.868 74.765 212.423 75.905 212.753 77.225C213.083 78.545 213.248 80.015 213.248 81.635V95H206.543V82.445C206.543 80.285 206.258 78.755 205.688 77.855C205.118 76.955 204.053 76.505 202.493 76.505C202.013 76.505 201.503 76.535 200.963 76.595C200.423 76.625 199.943 76.67 199.523 76.73V95H192.818V72.14ZM219.317 95V61.16L226.022 60.08V71.42C226.472 71.27 227.042 71.135 227.732 71.015C228.452 70.865 229.142 70.79 229.802 70.79C231.722 70.79 233.312 71.06 234.572 71.6C235.862 72.11 236.882 72.845 237.632 73.805C238.412 74.765 238.952 75.905 239.252 77.225C239.582 78.545 239.747 80.015 239.747 81.635V95H233.042V82.445C233.042 80.285 232.757 78.755 232.187 77.855C231.647 76.955 230.627 76.505 229.127 76.505C228.527 76.505 227.957 76.565 227.417 76.685C226.907 76.775 226.442 76.88 226.022 77V95H219.317ZM267.956 83.12C267.956 84.98 267.686 86.69 267.146 88.25C266.606 89.78 265.826 91.1 264.806 92.21C263.786 93.29 262.556 94.13 261.116 94.73C259.706 95.33 258.116 95.63 256.346 95.63C254.606 95.63 253.016 95.33 251.576 94.73C250.166 94.13 248.951 93.29 247.931 92.21C246.911 91.1 246.116 89.78 245.546 88.25C244.976 86.69 244.691 84.98 244.691 83.12C244.691 81.26 244.976 79.565 245.546 78.035C246.146 76.505 246.956 75.2 247.976 74.12C249.026 73.04 250.256 72.2 251.666 71.6C253.106 71 254.666 70.7 256.346 70.7C258.056 70.7 259.616 71 261.026 71.6C262.466 72.2 263.696 73.04 264.716 74.12C265.736 75.2 266.531 76.505 267.101 78.035C267.671 79.565 267.956 81.26 267.956 83.12ZM261.116 83.12C261.116 81.05 260.696 79.43 259.856 78.26C259.046 77.06 257.876 76.46 256.346 76.46C254.816 76.46 253.631 77.06 252.791 78.26C251.951 79.43 251.531 81.05 251.531 83.12C251.531 85.19 251.951 86.84 252.791 88.07C253.631 89.27 254.816 89.87 256.346 89.87C257.876 89.87 259.046 89.27 259.856 88.07C260.696 86.84 261.116 85.19 261.116 83.12ZM149.473 115.815C150.013 116.805 150.628 118.035 151.318 119.505C152.038 120.945 152.773 122.52 153.523 124.23C154.303 125.91 155.068 127.635 155.818 129.405C156.568 131.175 157.273 132.84 157.933 134.4C158.593 132.84 159.298 131.175 160.048 129.405C160.798 127.635 161.548 125.91 162.298 124.23C163.078 122.52 163.813 120.945 164.503 119.505C165.223 118.035 165.853 116.805 166.393 115.815H172.783C173.083 117.885 173.353 120.21 173.593 122.79C173.863 125.34 174.088 128.01 174.268 130.8C174.478 133.56 174.658 136.335 174.808 139.125C174.988 141.915 175.138 144.54 175.258 147H168.418C168.328 143.97 168.208 140.67 168.058 137.1C167.908 133.53 167.683 129.93 167.383 126.3C166.843 127.56 166.243 128.955 165.583 130.485C164.923 132.015 164.263 133.545 163.603 135.075C162.973 136.605 162.358 138.075 161.758 139.485C161.158 140.865 160.648 142.05 160.228 143.04H155.323C154.903 142.05 154.393 140.865 153.793 139.485C153.193 138.075 152.563 136.605 151.903 135.075C151.273 133.545 150.628 132.015 149.968 130.485C149.308 128.955 148.708 127.56 148.168 126.3C147.868 129.93 147.643 133.53 147.493 137.1C147.343 140.67 147.223 143.97 147.133 147H140.293C140.413 144.54 140.548 141.915 140.698 139.125C140.878 136.335 141.058 133.56 141.238 130.8C141.448 128.01 141.673 125.34 141.913 122.79C142.183 120.21 142.468 117.885 142.768 115.815H149.473ZM251.707 134.985C251.707 137.055 252.172 138.72 253.102 139.98C254.032 141.24 255.412 141.87 257.242 141.87C257.842 141.87 258.397 141.855 258.907 141.825C259.417 141.765 259.837 141.705 260.167 141.645V129.45C259.747 129.18 259.192 128.955 258.502 128.775C257.842 128.595 257.167 128.505 256.477 128.505C253.297 128.505 251.707 130.665 251.707 134.985ZM266.872 146.235C266.272 146.415 265.582 146.595 264.802 146.775C264.022 146.925 263.197 147.06 262.327 147.18C261.487 147.3 260.617 147.39 259.717 147.45C258.847 147.54 258.007 147.585 257.197 147.585C255.247 147.585 253.507 147.3 251.977 146.73C250.447 146.16 249.157 145.35 248.107 144.3C247.057 143.22 246.247 141.93 245.677 140.43C245.137 138.9 244.867 137.19 244.867 135.3C244.867 133.38 245.107 131.655 245.587 130.125C246.067 128.565 246.757 127.245 247.657 126.165C248.557 125.085 249.652 124.26 250.942 123.69C252.262 123.12 253.762 122.835 255.442 122.835C256.372 122.835 257.197 122.925 257.917 123.105C258.667 123.285 259.417 123.54 260.167 123.87V113.16L266.872 112.08V146.235Z" fill="#F3F4F8"/>
<circle cx="194" cy="132" r="15" fill="#A6C9C1"/>
<rect x="187.4" y="126" width="4.2" height="6.6" rx="2.1" fill="#282A3A"/>
<rect x="188" y="127.2" width="1.2" height="1.8" rx="0.6" fill="#F3F4F8"/>
<rect x="196.4" y="126" width="4.2" height="6.6" rx="2.1" fill="#282A3A"/>
<rect x="197" y="127.2" width="1.2" height="1.8" rx="0.6" fill="#F3F4F8"/>
<path d="M188 135.9C188 135.9 191 137.7 194 137.7C197 137.7 200 135.9 200 135.9" stroke="#282A3A" stroke-width="2" stroke-linecap="round"/>
<circle cx="227" cy="132" r="15" fill="#736490"/>
<path d="M221 137.848C221 136.688 223.355 133.8 227 133.8C230.645 133.8 233 136.688 233 137.848C233 139.008 230.645 138.448 227 138.448C223.355 138.448 221 139.008 221 137.848Z" fill="#282A3A"/>
<rect x="220.4" y="126" width="4.2" height="6.6" rx="2.1" fill="#282A3A"/>
<rect x="221" y="127.2" width="1.2" height="1.8" rx="0.6" fill="#F3F4F8"/>
<rect x="229.4" y="126" width="4.2" height="6.6" rx="2.1" fill="#282A3A"/>
<rect x="230" y="127.2" width="1.2" height="1.8" rx="0.599999" fill="#F3F4F8"/>
<path d="M229.401 126C229.401 126 230.604 126.473 231.416 126.594C232.26 126.719 233.601 126.6 233.601 126.6" stroke="#282A3A" stroke-width="2" stroke-linecap="round"/>
<path d="M224.6 126.006C224.6 126.006 223.396 126.479 222.585 126.6C221.741 126.725 220.4 126.606 220.4 126.606" stroke="#282A3A" stroke-width="2" stroke-linecap="round"/>
<path d="M215.6 127.587C214.646 127.586 213.73 127.207 213.055 126.532C212.381 125.857 212.001 124.942 212 123.987C212 123.051 212.72 121.56 214.131 119.554C214.299 119.321 214.519 119.131 214.775 119C215.031 118.868 215.314 118.8 215.601 118.8C215.889 118.8 216.172 118.868 216.427 119C216.683 119.131 216.904 119.321 217.071 119.554C218.483 121.56 219.2 123.051 219.2 123.987C219.199 124.942 218.819 125.857 218.145 126.532C217.47 127.207 216.554 127.586 215.6 127.587Z" fill="#BFD7EA"/>
</svg>
