<svg width="24" height="24" viewBox="0 0 24 24" fill="none" xmlns="http://www.w3.org/2000/svg">
<g clip-path="url(#clip0_8_2)">
<path d="M23.0382 8.88409C20.6097 5.13732 16.4637 2.85855 11.999 2.81666C7.53424 2.85855 3.38823 5.13732 0.959808 8.88409C-0.319946 10.7622 -0.319946 13.2322 0.959808 15.1104C3.38686 18.8594 7.53311 21.1406 11.999 21.1838C16.4637 21.1419 20.6097 18.8632 23.0382 15.1164C24.3206 13.2369 24.3206 10.7636 23.0382 8.88409ZM20.5533 13.4075C18.6992 16.3483 15.4753 18.1424 11.999 18.1682C8.52265 18.1425 5.29872 16.3483 3.44463 13.4075C2.86662 12.5583 2.86662 11.4421 3.44463 10.593C5.29867 7.65221 8.5226 5.85805 11.999 5.83228C15.4753 5.85801 18.6992 7.65221 20.5533 10.593C21.1313 11.4421 21.1313 12.5583 20.5533 13.4075Z" fill="#887BA3"/>
<path d="M11.9989 16.0209C14.2195 16.0209 16.0197 14.2207 16.0197 12C16.0197 9.77941 14.2195 7.97923 11.9989 7.97923C9.77824 7.97923 7.97806 9.77941 7.97806 12C7.97806 14.2207 9.77824 16.0209 11.9989 16.0209Z" fill="#887BA3"/>
</g>
<defs>
<clipPath id="clip0_8_2">
<rect width="24" height="24" fill="white"/>
</clipPath>
</defs>
</svg>
