<svg width="299" height="416" viewBox="0 0 299 416" fill="none" xmlns="http://www.w3.org/2000/svg">
<rect x="4" width="295" height="200" rx="20" fill="#E6E9ED"/>
<rect y="216" width="295" height="200" rx="20" fill="#E6E9ED"/>
<g filter="url(#filter0_d_121_422)">
<circle cx="34" cy="388" r="15" fill="#736490"/>
<path d="M28 393.848C28 392.688 30.3549 389.8 34 389.8C37.6451 389.8 40 392.688 40 393.848C40 395.008 37.6451 394.448 34 394.448C30.3549 394.448 28 395.008 28 393.848Z" fill="#282A3A"/>
<rect x="27.4" y="382" width="4.2" height="6.6" rx="2.1" fill="#282A3A"/>
<rect x="28" y="383.2" width="1.2" height="1.8" rx="0.6" fill="#F3F4F8"/>
<rect x="36.4" y="382" width="4.2" height="6.6" rx="2.1" fill="#282A3A"/>
<rect x="37" y="383.2" width="1.2" height="1.8" rx="0.599999" fill="#F3F4F8"/>
<path d="M36.4009 382C36.4009 382 37.6045 382.473 38.416 382.594C39.26 382.719 40.6009 382.6 40.6009 382.6" stroke="#282A3A" stroke-width="2" stroke-linecap="round"/>
<path d="M31.6 382.006C31.6 382.006 30.3964 382.479 29.5848 382.6C28.7409 382.725 27.4 382.606 27.4 382.606" stroke="#282A3A" stroke-width="2" stroke-linecap="round"/>
<path d="M22.6 383.587C21.6455 383.586 20.7304 383.207 20.0555 382.532C19.3805 381.857 19.001 380.942 19 379.987C19 379.051 19.72 377.56 21.1312 375.554C21.2988 375.321 21.5195 375.131 21.7751 375C22.0307 374.868 22.3139 374.8 22.6012 374.8C22.8885 374.8 23.1717 374.868 23.4273 375C23.6829 375.131 23.9036 375.321 24.0712 375.554C25.483 377.56 26.2 379.051 26.2 379.987C26.199 380.942 25.8195 381.857 25.1445 382.532C24.4696 383.207 23.5545 383.586 22.6 383.587Z" fill="#BFD7EA"/>
<circle cx="94" cy="388" r="15" fill="#9E93B4"/>
<path d="M96.4 385.6C96.4 385.6 97.45 385.9 98.5 385.9C99.55 385.9 100.6 385.6 100.6 385.6" stroke="#282A3A" stroke-width="2" stroke-linecap="round"/>
<path d="M87.4 385.6C87.4 385.6 88.45 385.9 89.5 385.9C90.55 385.9 91.6 385.6 91.6 385.6" stroke="#282A3A" stroke-width="2" stroke-linecap="round"/>
<path d="M89.2 392.662C89.2 391.498 91.084 388.6 94 388.6C96.9161 388.6 98.8 391.498 98.8 392.662C98.8 393.826 96.9161 393.264 94.0001 393.264C91.084 393.264 89.2 393.826 89.2 392.662Z" fill="#282A3A"/>
<path d="M101.8 375.891L102.678 375.481C102.751 375.446 102.832 375.508 102.819 375.588L102.586 376.982C102.572 377.066 102.665 377.128 102.738 377.083L103.6 376.545" stroke="#282A3A" stroke-width="0.6" stroke-linecap="round"/>
<path d="M100.6 379.218L102.178 378.481C102.251 378.446 102.332 378.508 102.319 378.588L101.886 381.182C101.872 381.266 101.965 381.328 102.038 381.283L103.6 380.309" stroke="#282A3A" stroke-linecap="round"/>
<circle cx="154" cy="388" r="15" fill="#DF5353"/>
<rect x="147.4" y="382" width="4.2" height="6.6" rx="2.1" fill="#282A3A"/>
<rect x="148" y="383.2" width="1.2" height="1.8" rx="0.6" fill="#F3F4F8"/>
<rect x="156.4" y="382" width="4.2" height="6.6" rx="2.1" fill="#282A3A"/>
<rect x="157" y="383.2" width="1.2" height="1.8" rx="0.6" fill="#F3F4F8"/>
<path d="M148 393.7C148 393.7 151 391.9 154 391.9C157 391.9 160 393.7 160 393.7" stroke="#282A3A" stroke-width="2" stroke-linecap="round"/>
<path d="M160.6 381.4C160.6 381.4 159.396 381.873 158.585 381.994C157.741 382.119 156.4 382 156.4 382" stroke="#282A3A" stroke-width="2" stroke-linecap="round"/>
<path d="M147.485 381.406C147.485 381.406 148.688 381.879 149.5 382C150.344 382.125 151.685 382.006 151.685 382.006" stroke="#282A3A" stroke-width="2" stroke-linecap="round"/>
<circle cx="214" cy="388" r="15" fill="#D62828"/>
<path d="M207.4 395.052C207.4 393.892 210.355 390.552 214 390.552C217.645 390.552 220.6 393.892 220.6 395.052C220.6 396.212 217.645 394.752 214 394.752C210.355 394.752 207.4 396.212 207.4 395.052Z" fill="#282A3A"/>
<rect x="207.4" y="380.8" width="4.2" height="6.6" rx="2.1" fill="#282A3A"/>
<rect x="208" y="382" width="1.2" height="1.8" rx="0.6" fill="#F3F4F8"/>
<rect x="216.4" y="380.8" width="4.2" height="6.6" rx="2.1" fill="#282A3A"/>
<rect x="217" y="382" width="1.2" height="1.8" rx="0.6" fill="#F3F4F8"/>
<path d="M220.558 380.8C220.558 380.8 219.354 381.273 218.543 381.394C217.699 381.519 216.358 381.4 216.358 381.4" stroke="#282A3A" stroke-width="2" stroke-linecap="round"/>
<path d="M207.443 380.806C207.443 380.806 208.646 381.279 209.458 381.4C210.302 381.525 211.643 381.406 211.643 381.406" stroke="#282A3A" stroke-width="2" stroke-linecap="round"/>
<circle cx="274" cy="388" r="15" fill="#EC9898"/>
<path d="M268 392.8C268 392.8 271 394.3 274 394.3C277 394.3 280 392.8 280 392.8" stroke="#282A3A" stroke-width="2" stroke-linecap="round"/>
<path d="M271.287 382.6C270.921 382.605 270.563 382.704 270.249 382.885C269.936 383.066 269.677 383.324 269.5 383.632C269.323 383.324 269.064 383.066 268.751 382.885C268.437 382.704 268.079 382.605 267.713 382.6C267.13 382.624 266.581 382.87 266.185 383.283C265.789 383.697 265.58 384.244 265.602 384.806C265.602 386.228 267.156 387.782 268.46 388.835C268.752 389.071 269.12 389.2 269.5 389.2C269.88 389.2 270.248 389.071 270.54 388.835C271.844 387.782 273.398 386.228 273.398 384.806C273.42 384.244 273.211 383.697 272.815 383.283C272.419 382.87 271.87 382.624 271.287 382.6Z" fill="#282A3A"/>
<path d="M280.887 382.6C280.521 382.605 280.163 382.704 279.849 382.885C279.536 383.066 279.277 383.324 279.1 383.632C278.923 383.324 278.664 383.066 278.351 382.885C278.037 382.704 277.679 382.605 277.313 382.6C276.73 382.624 276.181 382.87 275.785 383.283C275.389 383.697 275.18 384.244 275.202 384.806C275.202 386.228 276.756 387.782 278.06 388.835C278.352 389.071 278.72 389.2 279.1 389.2C279.48 389.2 279.848 389.071 280.14 388.835C281.444 387.782 282.998 386.228 282.998 384.806C283.02 384.244 282.811 383.697 282.415 383.283C282.019 382.87 281.47 382.624 280.887 382.6Z" fill="#282A3A"/>
<rect x="19" y="313" width="30" height="46" rx="10" fill="#736490"/>
<rect x="79" y="333" width="30" height="26" rx="10" fill="#9E93B4"/>
<rect x="139" y="286" width="30" height="73.3701" rx="10" fill="#DF5353"/>
<path d="M199 283C199 277.477 203.477 273 209 273H219C224.523 273 229 277.477 229 283V349C229 354.523 224.523 359 219 359H209C203.477 359 199 354.523 199 349V283Z" fill="#D62828"/>
<rect x="259" y="273" width="30" height="86" rx="10" fill="#EC9898"/>
</g>
<g filter="url(#filter1_d_121_422)">
<circle cx="34" cy="172" r="15" fill="#4D8074"/>
<path d="M40.6 175C40.6 176.16 37.6451 179.5 34 179.5C30.3549 179.5 27.4 176.16 27.4 175C27.4 173.84 30.3549 175.3 34 175.3C37.6451 175.3 40.6 173.84 40.6 175Z" fill="#F3F4F8"/>
<rect x="27.4" y="164.8" width="4.2" height="6.6" rx="2.1" fill="#282A3A"/>
<rect x="28" y="166" width="1.2" height="1.8" rx="0.6" fill="#F3F4F8"/>
<rect x="36.4" y="164.8" width="4.2" height="6.6" rx="2.1" fill="#282A3A"/>
<rect x="37" y="166" width="1.2" height="1.8" rx="0.6" fill="#F3F4F8"/>
<circle cx="94" cy="172" r="15" fill="#A6C9C1"/>
<rect x="87.4" y="166" width="4.2" height="6.6" rx="2.1" fill="#282A3A"/>
<rect x="88" y="167.2" width="1.2" height="1.8" rx="0.6" fill="#F3F4F8"/>
<rect x="96.4" y="166" width="4.2" height="6.6" rx="2.1" fill="#282A3A"/>
<rect x="97" y="167.2" width="1.2" height="1.8" rx="0.6" fill="#F3F4F8"/>
<path d="M88 175.9C88 175.9 91 177.7 94 177.7C97 177.7 100 175.9 100 175.9" stroke="#282A3A" stroke-width="2" stroke-linecap="round"/>
<circle cx="154" cy="172" r="15" fill="#F3D791"/>
<rect x="147.4" y="167.2" width="4.2" height="6.6" rx="2.1" fill="#282A3A"/>
<rect x="148" y="168.4" width="1.2" height="1.8" rx="0.6" fill="#F3F4F8"/>
<rect x="156.4" y="167.2" width="4.2" height="6.6" rx="2.1" fill="#282A3A"/>
<rect x="157" y="168.4" width="1.2" height="1.8" rx="0.6" fill="#F3F4F8"/>
<path d="M148 177.1C148 177.1 151 177.1 154 177.1C157 177.1 160 177.1 160 177.1" stroke="#282A3A" stroke-width="2" stroke-linecap="round"/>
<circle cx="214" cy="172" r="15" fill="#A3C5E1"/>
<rect x="207.4" y="166" width="4.2" height="6.6" rx="2.1" fill="#282A3A"/>
<rect x="208" y="167.2" width="1.2" height="1.8" rx="0.6" fill="#F3F4F8"/>
<rect x="216.4" y="166" width="4.2" height="6.6" rx="2.1" fill="#282A3A"/>
<rect x="217" y="167.2" width="1.2" height="1.8" rx="0.6" fill="#F3F4F8"/>
<path d="M208 177.7C208 177.7 211 175.9 214 175.9C217 175.9 220 177.7 220 177.7" stroke="#282A3A" stroke-width="2" stroke-linecap="round"/>
<circle cx="274" cy="172" r="15" fill="#468BC3"/>
<path d="M267.4 179.052C267.4 177.892 270.355 174.552 274 174.552C277.645 174.552 280.6 177.892 280.6 179.052C280.6 180.212 277.645 178.752 274 178.752C270.355 178.752 267.4 180.212 267.4 179.052Z" fill="#282A3A"/>
<rect x="267.4" y="164.8" width="4.2" height="6.6" rx="2.1" fill="#282A3A"/>
<rect x="268" y="166" width="1.2" height="1.8" rx="0.6" fill="#F3F4F8"/>
<rect x="276.4" y="164.8" width="4.2" height="6.6" rx="2.1" fill="#282A3A"/>
<rect x="277" y="166" width="1.2" height="1.8" rx="0.6" fill="#F3F4F8"/>
<rect x="19" y="22" width="30" height="120.803" rx="10" fill="#4D8074"/>
<rect x="79" y="75" width="30" height="68" rx="10" fill="#A6C9C1"/>
<rect x="139" y="75" width="30" height="68" rx="10" fill="#F3D791"/>
<path d="M199 24C199 18.4771 203.477 14 209 14H219C224.523 14 229 18.4772 229 24V133C229 138.523 224.523 143 219 143H209C203.477 143 199 138.523 199 133V24Z" fill="#A3C5E1"/>
<rect x="259" y="57" width="30" height="86" rx="10" fill="#468BC3"/>
<path d="M23.5328 128.02C23.9195 127.86 24.3195 127.68 24.7328 127.48C25.1595 127.267 25.5728 127.04 25.9728 126.8C26.3728 126.547 26.7528 126.287 27.1128 126.02C27.4861 125.74 27.8195 125.447 28.1128 125.14H30.1928V139H27.2128V129.02C26.8128 129.287 26.3661 129.533 25.8728 129.76C25.3795 129.973 24.8995 130.16 24.4328 130.32L23.5328 128.02ZM44.18 132.04C44.18 134.373 43.7333 136.167 42.84 137.42C41.96 138.66 40.74 139.28 39.18 139.28C37.62 139.28 36.3933 138.66 35.5 137.42C34.62 136.167 34.18 134.373 34.18 132.04C34.18 130.88 34.2933 129.853 34.52 128.96C34.76 128.067 35.1 127.313 35.54 126.7C35.98 126.087 36.5067 125.62 37.12 125.3C37.7333 124.98 38.42 124.82 39.18 124.82C40.74 124.82 41.96 125.447 42.84 126.7C43.7333 127.94 44.18 129.72 44.18 132.04ZM41.14 132.04C41.14 131.347 41.1067 130.72 41.04 130.16C40.9733 129.587 40.8667 129.093 40.72 128.68C40.5733 128.267 40.3733 127.947 40.12 127.72C39.8667 127.493 39.5533 127.38 39.18 127.38C38.8067 127.38 38.4933 127.493 38.24 127.72C38 127.947 37.8 128.267 37.64 128.68C37.4933 129.093 37.3867 129.587 37.32 130.16C37.2533 130.72 37.22 131.347 37.22 132.04C37.22 132.733 37.2533 133.367 37.32 133.94C37.3867 134.513 37.4933 135.007 37.64 135.42C37.8 135.833 38 136.153 38.24 136.38C38.4933 136.607 38.8067 136.72 39.18 136.72C39.5533 136.72 39.8667 136.607 40.12 136.38C40.3733 136.153 40.5733 135.833 40.72 135.42C40.8667 135.007 40.9733 134.513 41.04 133.94C41.1067 133.367 41.14 132.733 41.14 132.04Z" fill="#F3F4F8"/>
<path d="M203.533 128.02C203.919 127.86 204.319 127.68 204.733 127.48C205.159 127.267 205.573 127.04 205.973 126.8C206.373 126.547 206.753 126.287 207.113 126.02C207.486 125.74 207.819 125.447 208.113 125.14H210.193V139H207.213V129.02C206.813 129.287 206.366 129.533 205.873 129.76C205.379 129.973 204.899 130.16 204.433 130.32L203.533 128.02ZM214.9 128.02C215.287 127.86 215.687 127.68 216.1 127.48C216.527 127.267 216.94 127.04 217.34 126.8C217.74 126.547 218.12 126.287 218.48 126.02C218.853 125.74 219.187 125.447 219.48 125.14H221.56V139H218.58V129.02C218.18 129.287 217.733 129.533 217.24 129.76C216.747 129.973 216.267 130.16 215.8 130.32L214.9 128.02Z" fill="#F3F4F8"/>
<path d="M95.5164 134.92C95.5164 134.533 95.4297 134.193 95.2564 133.9C95.0831 133.593 94.7831 133.34 94.3564 133.14C93.9297 132.94 93.3564 132.787 92.6364 132.68C91.9164 132.573 91.0097 132.52 89.9164 132.52C90.0631 131.28 90.1831 130.02 90.2764 128.74C90.3697 127.46 90.4431 126.26 90.4964 125.14H97.9964V127.64H92.9964C92.9697 128.12 92.9364 128.587 92.8964 129.04C92.8697 129.48 92.8364 129.867 92.7964 130.2C94.7431 130.333 96.1764 130.793 97.0964 131.58C98.0297 132.353 98.4964 133.433 98.4964 134.82C98.4964 135.46 98.3831 136.053 98.1564 136.6C97.9297 137.147 97.5897 137.62 97.1364 138.02C96.6831 138.42 96.1097 138.733 95.4164 138.96C94.7364 139.187 93.9364 139.3 93.0164 139.3C92.6564 139.3 92.2764 139.273 91.8764 139.22C91.4897 139.18 91.1097 139.12 90.7364 139.04C90.3764 138.973 90.0497 138.9 89.7564 138.82C89.4631 138.74 89.2364 138.66 89.0764 138.58L89.6164 136.12C89.9497 136.267 90.3897 136.413 90.9364 136.56C91.4831 136.693 92.1364 136.76 92.8964 136.76C93.8164 136.76 94.4831 136.58 94.8964 136.22C95.3097 135.847 95.5164 135.413 95.5164 134.92Z" fill="#F3F4F8"/>
<path d="M89.7164 344.02C90.1031 343.86 90.5031 343.68 90.9164 343.48C91.3431 343.267 91.7564 343.04 92.1564 342.8C92.5564 342.547 92.9364 342.287 93.2964 342.02C93.6697 341.74 94.0031 341.447 94.2964 341.14H96.3764V355H93.3964V345.02C92.9964 345.287 92.5497 345.533 92.0564 345.76C91.5631 345.973 91.0831 346.16 90.6164 346.32L89.7164 344.02Z" fill="#F3F4F8"/>
<path d="M32.8764 355.3C32.5164 355.3 32.1364 355.273 31.7364 355.22C31.3364 355.18 30.9497 355.12 30.5764 355.04C30.2031 354.96 29.8631 354.873 29.5564 354.78C29.2497 354.687 29.0097 354.6 28.8364 354.52L29.4164 352.04C29.7631 352.187 30.2031 352.347 30.7364 352.52C31.2831 352.68 31.9564 352.76 32.7564 352.76C33.6764 352.76 34.3497 352.587 34.7764 352.24C35.2031 351.893 35.4164 351.427 35.4164 350.84C35.4164 350.48 35.3364 350.18 35.1764 349.94C35.0297 349.687 34.8231 349.487 34.5564 349.34C34.2897 349.18 33.9697 349.073 33.5964 349.02C33.2364 348.953 32.8497 348.92 32.4364 348.92H31.2764V346.52H32.5964C32.8897 346.52 33.1697 346.493 33.4364 346.44C33.7164 346.387 33.9631 346.3 34.1764 346.18C34.3897 346.047 34.5564 345.873 34.6764 345.66C34.8097 345.433 34.8764 345.153 34.8764 344.82C34.8764 344.567 34.8231 344.347 34.7164 344.16C34.6097 343.973 34.4697 343.82 34.2964 343.7C34.1364 343.58 33.9431 343.493 33.7164 343.44C33.5031 343.373 33.2831 343.34 33.0564 343.34C32.4831 343.34 31.9497 343.427 31.4564 343.6C30.9764 343.773 30.5364 343.987 30.1364 344.24L29.0764 342.06C29.2897 341.927 29.5364 341.787 29.8164 341.64C30.1097 341.493 30.4297 341.36 30.7764 341.24C31.1231 341.12 31.4897 341.02 31.8764 340.94C32.2764 340.86 32.6964 340.82 33.1364 340.82C33.9497 340.82 34.6497 340.92 35.2364 341.12C35.8364 341.307 36.3297 341.58 36.7164 341.94C37.1031 342.287 37.3897 342.7 37.5764 343.18C37.7631 343.647 37.8564 344.16 37.8564 344.72C37.8564 345.267 37.7031 345.8 37.3964 346.32C37.0897 346.827 36.6764 347.213 36.1564 347.48C36.8764 347.773 37.4297 348.213 37.8164 348.8C38.2164 349.373 38.4164 350.067 38.4164 350.88C38.4164 351.52 38.3097 352.113 38.0964 352.66C37.8831 353.193 37.5497 353.66 37.0964 354.06C36.6431 354.447 36.0631 354.753 35.3564 354.98C34.6631 355.193 33.8364 355.3 32.8764 355.3Z" fill="#F3F4F8"/>
<path d="M155.516 134.92C155.516 134.533 155.43 134.193 155.256 133.9C155.083 133.593 154.783 133.34 154.356 133.14C153.93 132.94 153.356 132.787 152.636 132.68C151.916 132.573 151.01 132.52 149.916 132.52C150.063 131.28 150.183 130.02 150.276 128.74C150.37 127.46 150.443 126.26 150.496 125.14H157.996V127.64H152.996C152.97 128.12 152.936 128.587 152.896 129.04C152.87 129.48 152.836 129.867 152.796 130.2C154.743 130.333 156.176 130.793 157.096 131.58C158.03 132.353 158.496 133.433 158.496 134.82C158.496 135.46 158.383 136.053 158.156 136.6C157.93 137.147 157.59 137.62 157.136 138.02C156.683 138.42 156.11 138.733 155.416 138.96C154.736 139.187 153.936 139.3 153.016 139.3C152.656 139.3 152.276 139.273 151.876 139.22C151.49 139.18 151.11 139.12 150.736 139.04C150.376 138.973 150.05 138.9 149.756 138.82C149.463 138.74 149.236 138.66 149.076 138.58L149.616 136.12C149.95 136.267 150.39 136.413 150.936 136.56C151.483 136.693 152.136 136.76 152.896 136.76C153.816 136.76 154.483 136.58 154.896 136.22C155.31 135.847 155.516 135.413 155.516 134.92Z" fill="#F3F4F8"/>
<path d="M153.796 346.48C153.503 346.48 153.19 346.507 152.856 346.56C152.523 346.613 152.263 346.687 152.076 346.78C152.076 346.833 152.07 346.913 152.056 347.02C152.056 347.127 152.056 347.22 152.056 347.3C152.056 347.78 152.09 348.233 152.156 348.66C152.223 349.087 152.336 349.46 152.496 349.78C152.656 350.1 152.87 350.353 153.136 350.54C153.403 350.713 153.736 350.8 154.136 350.8C154.47 350.8 154.75 350.733 154.976 350.6C155.216 350.453 155.41 350.273 155.556 350.06C155.716 349.847 155.83 349.613 155.896 349.36C155.976 349.093 156.016 348.84 156.016 348.6C156.016 347.92 155.843 347.4 155.496 347.04C155.163 346.667 154.596 346.48 153.796 346.48ZM154.176 344.16C155.043 344.16 155.776 344.28 156.376 344.52C156.99 344.747 157.49 345.06 157.876 345.46C158.263 345.86 158.543 346.327 158.716 346.86C158.89 347.393 158.976 347.96 158.976 348.56C158.976 349.093 158.876 349.64 158.676 350.2C158.49 350.76 158.196 351.267 157.796 351.72C157.41 352.173 156.91 352.547 156.296 352.84C155.696 353.133 154.983 353.28 154.156 353.28C152.49 353.28 151.223 352.753 150.356 351.7C149.49 350.647 149.056 349.193 149.056 347.34C149.056 346.007 149.263 344.827 149.676 343.8C150.09 342.773 150.676 341.913 151.436 341.22C152.21 340.513 153.136 339.98 154.216 339.62C155.31 339.247 156.536 339.053 157.896 339.04C157.923 339.453 157.95 339.86 157.976 340.26C158.003 340.647 158.03 341.053 158.056 341.48C157.376 341.493 156.736 341.56 156.136 341.68C155.55 341.787 155.01 341.96 154.516 342.2C154.036 342.44 153.616 342.753 153.256 343.14C152.896 343.513 152.616 343.973 152.416 344.52C152.71 344.387 153.01 344.293 153.316 344.24C153.623 344.187 153.91 344.16 154.176 344.16Z" fill="#F3F4F8"/>
<path d="M271.156 139C271.236 138.027 271.403 137.013 271.656 135.96C271.91 134.907 272.216 133.873 272.576 132.86C272.95 131.847 273.363 130.893 273.816 130C274.27 129.093 274.73 128.313 275.196 127.66H269.176V125.12H278.876V127.28C278.45 127.747 277.976 128.393 277.456 129.22C276.95 130.047 276.463 130.987 275.996 132.04C275.543 133.08 275.143 134.2 274.796 135.4C274.463 136.6 274.256 137.8 274.176 139H271.156Z" fill="#F3F4F8"/>
<path d="M211.156 355C211.236 354.027 211.403 353.013 211.656 351.96C211.91 350.907 212.216 349.873 212.576 348.86C212.95 347.847 213.363 346.893 213.816 346C214.27 345.093 214.73 344.313 215.196 343.66H209.176V341.12H218.876V343.28C218.45 343.747 217.976 344.393 217.456 345.22C216.95 346.047 216.463 346.987 215.996 348.04C215.543 349.08 215.143 350.2 214.796 351.4C214.463 352.6 214.256 353.8 214.176 355H211.156Z" fill="#F3F4F8"/>
<path d="M271.156 355C271.236 354.027 271.403 353.013 271.656 351.96C271.91 350.907 272.216 349.873 272.576 348.86C272.95 347.847 273.363 346.893 273.816 346C274.27 345.093 274.73 344.313 275.196 343.66H269.176V341.12H278.876V343.28C278.45 343.747 277.976 344.393 277.456 345.22C276.95 346.047 276.463 346.987 275.996 348.04C275.543 349.08 275.143 350.2 274.796 351.4C274.463 352.6 274.256 353.8 274.176 355H271.156Z" fill="#F3F4F8"/>
</g>
<defs>
<filter id="filter0_d_121_422" x="15" y="269" width="278" height="138" filterUnits="userSpaceOnUse" color-interpolation-filters="sRGB">
<feFlood flood-opacity="0" result="BackgroundImageFix"/>
<feColorMatrix in="SourceAlpha" type="matrix" values="0 0 0 0 0 0 0 0 0 0 0 0 0 0 0 0 0 0 127 0" result="hardAlpha"/>
<feOffset/>
<feGaussianBlur stdDeviation="2"/>
<feComposite in2="hardAlpha" operator="out"/>
<feColorMatrix type="matrix" values="0 0 0 0 0 0 0 0 0 0 0 0 0 0 0 0 0 0 0.25 0"/>
<feBlend mode="normal" in2="BackgroundImageFix" result="effect1_dropShadow_121_422"/>
<feBlend mode="normal" in="SourceGraphic" in2="effect1_dropShadow_121_422" result="shape"/>
</filter>
<filter id="filter1_d_121_422" x="15" y="10" width="278" height="349.3" filterUnits="userSpaceOnUse" color-interpolation-filters="sRGB">
<feFlood flood-opacity="0" result="BackgroundImageFix"/>
<feColorMatrix in="SourceAlpha" type="matrix" values="0 0 0 0 0 0 0 0 0 0 0 0 0 0 0 0 0 0 127 0" result="hardAlpha"/>
<feOffset/>
<feGaussianBlur stdDeviation="2"/>
<feComposite in2="hardAlpha" operator="out"/>
<feColorMatrix type="matrix" values="0 0 0 0 0 0 0 0 0 0 0 0 0 0 0 0 0 0 0.25 0"/>
<feBlend mode="normal" in2="BackgroundImageFix" result="effect1_dropShadow_121_422"/>
<feBlend mode="normal" in="SourceGraphic" in2="effect1_dropShadow_121_422" result="shape"/>
</filter>
</defs>
</svg>
